<mxfile host="app.diagrams.net" modified="2022-03-14T03:49:18.152Z" agent="5.0 (Macintosh)" etag="fyUzrOBFx7YKxlFw7r0N" version="17.1.0" type="github">
  <diagram id="kgpKYQtTHZ0yAKxKKP6v" name="Page-1">
    <mxGraphModel dx="748" dy="737" grid="1" gridSize="10" guides="1" tooltips="1" connect="1" arrows="1" fold="1" page="1" pageScale="1" pageWidth="850" pageHeight="1100" math="0" shadow="0">
      <root>
        <mxCell id="0" />
        <mxCell id="1" parent="0" />
        <mxCell id="3nuBFxr9cyL0pnOWT2aG-1" value="Admin" style="shape=umlLifeline;perimeter=lifelinePerimeter;container=1;collapsible=0;recursiveResize=0;rounded=0;shadow=0;strokeWidth=1;" parent="1" vertex="1">
          <mxGeometry x="120" y="80" width="100" height="220" as="geometry" />
        </mxCell>
        <mxCell id="3nuBFxr9cyL0pnOWT2aG-2" value="" style="points=[];perimeter=orthogonalPerimeter;rounded=0;shadow=0;strokeWidth=1;" parent="3nuBFxr9cyL0pnOWT2aG-1" vertex="1">
          <mxGeometry x="45" y="70" width="10" height="120" as="geometry" />
        </mxCell>
        <mxCell id="3nuBFxr9cyL0pnOWT2aG-5" value="B/L GUI" style="shape=umlLifeline;perimeter=lifelinePerimeter;container=1;collapsible=0;recursiveResize=0;rounded=0;shadow=0;strokeWidth=1;" parent="1" vertex="1">
          <mxGeometry x="300" y="80" width="100" height="220" as="geometry" />
        </mxCell>
        <mxCell id="3nuBFxr9cyL0pnOWT2aG-6" value="" style="points=[];perimeter=orthogonalPerimeter;rounded=0;shadow=0;strokeWidth=1;" parent="3nuBFxr9cyL0pnOWT2aG-5" vertex="1">
          <mxGeometry x="45" y="80" width="10" height="110" as="geometry" />
        </mxCell>
        <mxCell id="eLDqaXjP_UrWTWcqMzap-7" value="return" style="verticalAlign=bottom;endArrow=open;dashed=1;endSize=8;shadow=0;strokeWidth=1;" edge="1" parent="3nuBFxr9cyL0pnOWT2aG-5" source="eLDqaXjP_UrWTWcqMzap-4">
          <mxGeometry x="-0.1433" relative="1" as="geometry">
            <mxPoint x="60.5" y="140" as="targetPoint" />
            <mxPoint x="235" y="140" as="sourcePoint" />
            <Array as="points">
              <mxPoint x="175.5" y="140" />
            </Array>
            <mxPoint as="offset" />
          </mxGeometry>
        </mxCell>
        <mxCell id="3nuBFxr9cyL0pnOWT2aG-9" value="viewSubmissions()" style="verticalAlign=bottom;endArrow=block;shadow=0;strokeWidth=1;exitX=0.5;exitY=0.074;exitDx=0;exitDy=0;exitPerimeter=0;" parent="1" source="3nuBFxr9cyL0pnOWT2aG-2" target="eLDqaXjP_UrWTWcqMzap-4" edge="1">
          <mxGeometry relative="1" as="geometry">
            <mxPoint x="180" y="164" as="sourcePoint" />
            <Array as="points">
              <mxPoint x="510" y="159" />
            </Array>
          </mxGeometry>
        </mxCell>
        <mxCell id="3nuBFxr9cyL0pnOWT2aG-10" value="return" style="verticalAlign=bottom;endArrow=open;dashed=1;endSize=8;shadow=0;strokeWidth=1;" parent="1" source="eLDqaXjP_UrWTWcqMzap-4" target="3nuBFxr9cyL0pnOWT2aG-6" edge="1">
          <mxGeometry x="-0.1566" relative="1" as="geometry">
            <mxPoint x="240" y="257" as="targetPoint" />
            <Array as="points">
              <mxPoint x="470" y="180" />
            </Array>
            <mxPoint as="offset" />
          </mxGeometry>
        </mxCell>
        <mxCell id="eLDqaXjP_UrWTWcqMzap-1" value="UC9: Track Big/Little Submission Statuses" style="text;strokeColor=none;fillColor=none;html=1;align=center;verticalAlign=middle;whiteSpace=wrap;rounded=0;hachureGap=4;" vertex="1" parent="1">
          <mxGeometry x="355" y="30" width="140" height="30" as="geometry" />
        </mxCell>
        <mxCell id="eLDqaXjP_UrWTWcqMzap-2" value="B/L Class" style="shape=umlLifeline;perimeter=lifelinePerimeter;container=1;collapsible=0;recursiveResize=0;rounded=0;shadow=0;strokeWidth=1;" vertex="1" parent="1">
          <mxGeometry x="480" y="80" width="100" height="220" as="geometry" />
        </mxCell>
        <mxCell id="eLDqaXjP_UrWTWcqMzap-3" value="" style="points=[];perimeter=orthogonalPerimeter;rounded=0;shadow=0;strokeWidth=1;" vertex="1" parent="eLDqaXjP_UrWTWcqMzap-2">
          <mxGeometry x="45" y="80" width="10" height="110" as="geometry" />
        </mxCell>
        <mxCell id="eLDqaXjP_UrWTWcqMzap-4" value="B/L Submission Table" style="shape=umlLifeline;perimeter=lifelinePerimeter;container=1;collapsible=0;recursiveResize=0;rounded=0;shadow=0;strokeWidth=1;" vertex="1" parent="1">
          <mxGeometry x="650" y="80" width="120" height="220" as="geometry" />
        </mxCell>
        <mxCell id="eLDqaXjP_UrWTWcqMzap-5" value="" style="points=[];perimeter=orthogonalPerimeter;rounded=0;shadow=0;strokeWidth=1;" vertex="1" parent="eLDqaXjP_UrWTWcqMzap-4">
          <mxGeometry x="55" y="80" width="10" height="110" as="geometry" />
        </mxCell>
        <mxCell id="eLDqaXjP_UrWTWcqMzap-6" value="viewBigs()" style="verticalAlign=bottom;endArrow=block;shadow=0;strokeWidth=1;exitX=0.5;exitY=0.074;exitDx=0;exitDy=0;exitPerimeter=0;" edge="1" parent="1" target="eLDqaXjP_UrWTWcqMzap-4">
          <mxGeometry relative="1" as="geometry">
            <mxPoint x="170.25" y="200.05999999999995" as="sourcePoint" />
            <mxPoint x="349.75" y="200" as="targetPoint" />
            <Array as="points" />
          </mxGeometry>
        </mxCell>
      </root>
    </mxGraphModel>
  </diagram>
</mxfile>
